<svg width="390" height="390" viewBox="0 0 390 390" fill="none" xmlns="http://www.w3.org/2000/svg">
<path d="M244.35 138.648V191.57C244.35 194.21 242.189 196.351 239.522 196.351H204.913C203.762 196.351 202.757 197.023 202.199 198.018C200.861 200.413 198.272 202.044 195.288 202.044C193.105 202.044 191.121 201.163 189.699 199.752C188.225 198.288 187.97 196.351 185.663 196.351H151.053C148.392 196.351 146.23 194.21 146.23 191.57V138.643C146.23 136.002 148.392 133.861 151.053 133.861H239.522C242.189 133.861 244.35 136.002 244.35 138.648Z" fill="#65B9FF"/>
<path d="M244.35 186.085V191.575C244.35 194.205 242.178 196.356 239.527 196.356H204.918C203.751 196.356 202.751 197.023 202.199 198.018C200.871 200.408 198.272 202.049 195.288 202.049C193.1 202.049 191.116 201.158 189.71 199.757C188.09 198.158 188.106 196.356 185.616 196.356H151.053C148.397 196.356 146.225 194.205 146.225 191.575V138.653C146.225 136.018 148.408 133.856 151.074 133.856H151.809V186.898C151.809 189.09 153.6 190.866 155.814 190.866H185.616C186.725 190.866 187.814 191.424 188.314 192.408C189.486 194.705 192.152 196.559 195.288 196.559C198.272 196.559 200.871 194.919 202.199 192.528C202.751 191.538 203.751 190.866 204.918 190.866H239.527C242.184 190.866 244.35 188.721 244.35 186.085Z" fill="#3E7FFF"/>
<path d="M195.288 189.351C208.439 183.908 221.595 183.403 234.746 187.83C236.736 188.497 238.798 187.049 238.798 184.971V134.106C238.798 132.856 238.027 131.705 236.85 131.262C222.996 126.049 209.142 126.304 195.288 132.033V189.351Z" fill="#DEDDFF"/>
<path d="M199.074 130.663C197.814 131.091 196.548 131.507 195.288 132.033V189.351C196.548 188.825 197.814 188.408 199.074 187.981V130.663Z" fill="#C6C6F7"/>
<path d="M155.835 187.83C168.986 183.403 182.137 183.908 195.288 189.351V132.033C181.434 126.304 167.585 126.049 153.731 131.262C152.548 131.705 151.783 132.856 151.783 134.106V184.971C151.783 187.049 153.845 188.497 155.835 187.83Z" fill="#C6C6F7"/>
<path d="M195.288 189.351C189.309 175.617 172.022 172.09 165.371 171.231C163.85 171.033 162.72 169.747 162.72 168.221V117.038C162.72 115.184 164.371 113.762 166.225 114.033C173.397 115.075 189.548 118.851 195.288 132.033V189.351Z" fill="#DEDDFF"/>
<path d="M189.361 137.054C186.428 134.122 182.559 131.7 177.855 129.856C177.277 129.632 176.996 128.981 177.225 128.413C177.454 127.84 178.111 127.564 178.684 127.783C183.673 129.742 187.803 132.33 190.96 135.486C191.397 135.924 191.392 136.627 190.954 137.059C190.507 137.497 189.793 137.486 189.361 137.054Z" fill="#C6C6F7"/>
<path d="M173.225 128.309C171.428 127.799 169.548 127.372 167.642 127.038C167.033 126.934 166.621 126.356 166.731 125.747C166.84 125.143 167.428 124.736 168.033 124.846C170.017 125.195 171.97 125.637 173.84 126.163C174.439 126.335 174.788 126.95 174.616 127.544C174.444 128.143 173.814 128.476 173.225 128.309Z" fill="#C6C6F7"/>
<path d="M189.361 144.247C188.168 143.049 186.798 141.924 185.293 140.903C184.777 140.554 184.647 139.861 185.001 139.351C185.35 138.846 186.048 138.71 186.564 139.064C188.189 140.163 189.668 141.382 190.96 142.674C191.397 143.111 191.392 143.82 190.954 144.252C190.512 144.684 189.798 144.684 189.361 144.247Z" fill="#C6C6F7"/>
<path d="M181.814 138.835C176.72 136.189 171.293 134.867 167.642 134.226C167.033 134.122 166.621 133.544 166.731 132.934C166.84 132.33 167.418 131.924 168.033 132.033C171.845 132.705 177.507 134.085 182.861 136.861C183.408 137.148 183.621 137.82 183.335 138.367C183.048 138.908 182.371 139.122 181.814 138.835Z" fill="#C6C6F7"/>
<path d="M189.361 151.434C186.152 148.221 181.84 145.637 176.543 143.742C175.96 143.533 175.652 142.898 175.866 142.315C176.08 141.736 176.72 141.44 177.304 141.648C182.918 143.653 187.512 146.419 190.96 149.867C191.397 150.299 191.392 151.007 190.955 151.44C190.507 151.877 189.793 151.867 189.361 151.434Z" fill="#C6C6F7"/>
<path d="M172.85 142.58C171.158 142.117 169.402 141.726 167.642 141.413C167.033 141.309 166.621 140.731 166.731 140.127C166.84 139.518 167.428 139.111 168.033 139.221C169.866 139.544 171.684 139.95 173.449 140.434C174.048 140.596 174.397 141.21 174.231 141.804C174.069 142.382 173.47 142.747 172.85 142.58Z" fill="#C6C6F7"/>
<path d="M189.361 158.622C188.168 157.424 186.798 156.299 185.293 155.278C184.783 154.929 184.652 154.236 185.001 153.731C185.35 153.221 186.048 153.09 186.564 153.439C188.184 154.544 189.663 155.757 190.96 157.054C191.397 157.492 191.392 158.195 190.954 158.627C190.512 159.059 189.798 159.059 189.361 158.622Z" fill="#C6C6F7"/>
<path d="M180.158 152.403C175.517 150.262 170.793 149.158 167.642 148.606C167.033 148.497 166.621 147.919 166.731 147.314C166.84 146.71 167.428 146.309 168.033 146.413C171.314 146.986 176.246 148.143 181.106 150.382C181.673 150.643 181.913 151.304 181.652 151.861C181.392 152.419 180.725 152.663 180.158 152.403Z" fill="#C6C6F7"/>
<path d="M189.361 165.809C186.428 162.877 182.553 160.455 177.855 158.611C177.277 158.387 176.996 157.742 177.225 157.169C177.454 156.596 178.111 156.314 178.684 156.544C183.673 158.497 187.803 161.085 190.96 164.242C191.397 164.679 191.392 165.382 190.954 165.82C190.507 166.257 189.793 166.242 189.361 165.809Z" fill="#C6C6F7"/>
<path d="M172.548 156.877C170.954 156.45 169.303 156.085 167.642 155.794C167.033 155.689 166.621 155.106 166.731 154.502C166.84 153.898 167.418 153.497 168.033 153.601C169.762 153.903 171.475 154.283 173.137 154.726C173.736 154.887 174.09 155.497 173.928 156.091C173.767 156.679 173.152 157.038 172.548 156.877Z" fill="#C6C6F7"/>
<path d="M189.361 172.997C182.814 166.45 172.944 163.913 167.642 162.981C167.033 162.877 166.621 162.299 166.731 161.689C166.84 161.085 167.418 160.684 168.033 160.788C174.829 161.981 184.324 164.794 190.96 171.429C191.397 171.867 191.392 172.575 190.954 173.007C190.507 173.445 189.793 173.429 189.361 172.997Z" fill="#C6C6F7"/>
<path d="M215.569 168.981H220.6V188.184H215.569V168.981Z" fill="#312E4B"/>
<path d="M218.085 177.861C206.46 177.861 197.048 168.538 197.048 157.018C197.048 145.497 206.46 136.153 218.085 136.153C229.71 136.153 239.147 145.497 239.147 157.018C239.147 168.538 229.71 177.861 218.085 177.861Z" fill="#5B5E8B"/>
<path d="M234.283 157.018C234.283 165.877 227.038 173.054 218.095 173.054C209.147 173.054 201.892 165.877 201.892 157.018C201.892 148.153 209.147 140.96 218.095 140.96C227.038 140.96 234.283 148.153 234.283 157.018Z" fill="#DEDDFF"/>
<path d="M224.387 185.028V206.705C224.387 208.356 223.038 209.695 221.371 209.695H214.798C213.137 209.695 211.783 208.356 211.783 206.705V185.028C211.783 183.377 213.137 182.044 214.798 182.044H221.371C223.038 182.044 224.387 183.377 224.387 185.028Z" fill="#FCB73E"/>
<path d="M219.402 209.695H214.793C213.132 209.695 211.777 208.351 211.777 206.71V185.028C211.777 183.387 213.132 182.044 214.793 182.044L219.402 182.038C217.746 182.044 216.387 183.387 216.387 185.028V206.71C216.387 208.351 217.746 209.695 219.402 209.695Z" fill="#FD982E"/>
<path d="M213.96 153.866C213.793 154.788 213.298 156.809 211.757 158.715C212.772 159.59 213.934 160.314 215.231 160.861C215.668 161.033 215.887 161.512 215.684 162.012C215.517 162.387 215.1 162.643 214.538 162.471C213.064 161.84 211.731 161.012 210.559 159.991C209.319 161.106 207.767 161.945 205.955 162.486C205.741 162.627 205.043 162.512 204.856 161.908C204.715 161.439 204.981 160.955 205.46 160.82C206.965 160.372 208.262 159.689 209.319 158.783C208.611 157.971 208.007 157.075 207.533 156.116C207.314 155.695 207.486 155.179 207.928 154.96C208.366 154.726 208.897 154.929 209.111 155.351C209.481 156.096 209.955 156.82 210.527 157.486C211.569 156.116 211.996 154.705 212.173 153.866H204.798C204.309 153.866 203.913 153.476 203.913 152.981C203.913 152.486 204.309 152.111 204.798 152.111H209.283V150.825C209.283 150.34 209.678 149.95 210.163 149.95C210.663 149.95 211.048 150.33 211.048 150.825V152.111H215.559C216.043 152.111 216.439 152.502 216.439 152.981C216.439 153.465 216.043 153.866 215.559 153.866H213.96Z" fill="#E83D62"/>
<path d="M227.653 149.95C225.392 149.95 223.689 151.783 223.689 153.866V162.044C223.689 162.523 224.085 162.976 224.632 162.976C225.116 162.976 225.569 162.59 225.569 162.044V157.851H229.725V162.044C229.725 162.559 230.142 162.976 230.663 162.976C231.184 162.976 231.606 162.559 231.606 162.044V153.866C231.606 151.804 229.923 149.95 227.653 149.95ZM229.725 155.986H225.569V153.866C225.569 152.731 226.501 151.809 227.653 151.809C228.793 151.809 229.725 152.731 229.725 153.866V155.986Z" fill="#3E7FFF"/>
<path d="M221.642 157.45C221.642 157.919 221.272 158.299 220.798 158.299H216.387C215.923 158.299 215.538 157.919 215.538 157.45C215.538 156.96 215.923 156.596 216.387 156.596H220.798C221.272 156.596 221.642 156.96 221.642 157.45Z" fill="#B5B5EA"/>
<path d="M93.2734 267.683H89.9401V276.599H88.1693V267.683H84.8359V266.078H93.2734V267.683Z" fill="#3E8CF4"/>
<path d="M104.062 276.599L102.146 273.412C102.047 273.427 101.885 273.433 101.666 273.433H99.1663V276.599H97.3955V266.078H101.666C103.01 266.078 104.052 266.391 104.791 267.016C105.526 267.641 105.896 268.531 105.896 269.683C105.896 270.516 105.708 271.224 105.333 271.808C104.958 272.391 104.422 272.818 103.729 273.078L106.083 276.599H104.062ZM99.1663 271.828H101.666C103.375 271.828 104.229 271.13 104.229 269.724C104.229 268.365 103.375 267.683 101.666 267.683H99.1663V271.828Z" fill="#3E8CF4"/>
<path d="M117.659 274.224H112.367L111.347 276.599H109.513L114.159 266.078H115.972L120.555 276.599H118.68L117.659 274.224ZM116.992 272.641L115.013 267.974L113.013 272.641H116.992Z" fill="#3E8CF4"/>
<path d="M133.689 276.599H131.939L126.335 269.058V276.599H124.564V266.078H126.314L131.939 273.641V266.078H133.689V276.599Z" fill="#3E8CF4"/>
<path d="M142.53 266.016C143.89 266.016 145.119 266.38 146.218 267.099L145.468 268.662C144.395 268.011 143.374 267.683 142.405 267.683C141.864 267.683 141.437 267.781 141.134 267.974C140.827 268.156 140.676 268.427 140.676 268.787C140.676 269.136 140.812 269.433 141.093 269.683C141.384 269.922 141.739 270.099 142.155 270.224C142.572 270.339 143.02 270.485 143.509 270.662C144.009 270.828 144.468 271.011 144.884 271.203C145.312 271.401 145.66 271.703 145.926 272.12C146.202 272.537 146.343 273.037 146.343 273.62C146.343 274.552 145.973 275.297 145.239 275.849C144.499 276.391 143.551 276.662 142.384 276.662C141.577 276.662 140.801 276.516 140.051 276.224C139.301 275.922 138.645 275.511 138.093 274.995L138.864 273.453C139.39 273.953 139.968 274.339 140.593 274.599C141.228 274.865 141.832 274.995 142.405 274.995C143.03 274.995 143.515 274.886 143.864 274.662C144.207 274.427 144.384 274.115 144.384 273.724C144.384 273.365 144.239 273.058 143.947 272.808C143.666 272.558 143.322 272.38 142.905 272.266C142.489 272.156 142.03 272.016 141.53 271.849C141.041 271.683 140.593 271.511 140.176 271.328C139.759 271.136 139.405 270.839 139.114 270.433C138.832 270.016 138.697 269.516 138.697 268.933C138.697 268.047 139.041 267.339 139.739 266.808C140.447 266.281 141.374 266.016 142.53 266.016Z" fill="#3E8CF4"/>
<path d="M152.798 274.995H157.36V276.599H151.027V266.078H152.798V274.995Z" fill="#3E8CF4"/>
<path d="M168.453 274.224H163.161L162.14 276.599H160.307L164.953 266.078H166.765L171.349 276.599H169.474L168.453 274.224ZM167.786 272.641L165.807 267.974L163.807 272.641H167.786Z" fill="#3E8CF4"/>
<path d="M182.545 267.683H179.212V276.599H177.441V267.683H174.108V266.078H182.545V267.683Z" fill="#3E8CF4"/>
<path d="M188.438 276.599H186.667V266.078H188.438V276.599Z" fill="#3E8CF4"/>
<path d="M194.568 267.578C195.635 266.552 196.953 266.037 198.526 266.037C200.094 266.037 201.411 266.552 202.484 267.578C203.552 268.594 204.088 269.849 204.088 271.349C204.088 272.849 203.552 274.115 202.484 275.141C201.411 276.172 200.094 276.683 198.526 276.683C196.953 276.683 195.635 276.172 194.568 275.141C193.495 274.115 192.963 272.849 192.963 271.349C192.963 269.849 193.495 268.594 194.568 267.578ZM198.547 267.641C197.505 267.641 196.609 268.005 195.859 268.724C195.12 269.433 194.755 270.308 194.755 271.349C194.755 272.391 195.12 273.276 195.859 273.995C196.609 274.719 197.495 275.078 198.526 275.078C199.568 275.078 200.448 274.719 201.172 273.995C201.906 273.276 202.276 272.391 202.276 271.349C202.276 270.308 201.906 269.433 201.172 268.724C200.448 268.005 199.573 267.641 198.547 267.641Z" fill="#3E8CF4"/>
<path d="M217.721 276.599H215.971L210.367 269.058V276.599H208.596V266.078H210.346L215.971 273.641V266.078H217.721V276.599Z" fill="#3E8CF4"/>
<path d="M236.385 274.224H231.093L230.072 276.599H228.239L232.885 266.078H234.697L239.281 276.599H237.406L236.385 274.224ZM235.718 272.641L233.739 267.974L231.739 272.641H235.718Z" fill="#3E8CF4"/>
<path d="M250.498 271.433H252.04V275.308C251.498 275.724 250.858 276.058 250.123 276.308C249.384 276.558 248.665 276.683 247.957 276.683C246.399 276.683 245.087 276.172 244.019 275.141C242.962 274.115 242.436 272.849 242.436 271.349C242.436 269.849 242.967 268.594 244.04 267.578C245.123 266.552 246.462 266.037 248.061 266.037C248.795 266.037 249.519 266.172 250.227 266.433C250.946 266.698 251.571 267.058 252.102 267.516L251.102 268.828C250.238 268.026 249.227 267.62 248.061 267.62C246.988 267.62 246.082 267.985 245.332 268.703C244.592 269.427 244.227 270.308 244.227 271.349C244.227 272.391 244.592 273.276 245.332 273.995C246.082 274.719 246.998 275.078 248.082 275.078C248.884 275.078 249.691 274.844 250.498 274.37V271.433Z" fill="#3E8CF4"/>
<path d="M264.673 267.683H258.923V270.516H264.069V272.099H258.923V275.016H264.84V276.599H257.152V266.078H264.673V267.683Z" fill="#3E8CF4"/>
<path d="M278.743 276.599H276.993L271.389 269.058V276.599H269.618V266.078H271.368L276.993 273.641V266.078H278.743V276.599Z" fill="#3E8CF4"/>
<path d="M288.792 266.037C289.527 266.037 290.251 266.183 290.959 266.474C291.667 266.755 292.277 267.151 292.792 267.662L291.751 268.953C291.36 268.537 290.902 268.214 290.376 267.974C289.86 267.74 289.339 267.62 288.813 267.62C287.771 267.62 286.881 267.985 286.146 268.703C285.423 269.412 285.063 270.282 285.063 271.308C285.063 272.349 285.423 273.235 286.146 273.953C286.881 274.662 287.771 275.016 288.813 275.016C289.907 275.016 290.886 274.599 291.751 273.766L292.792 274.953C292.251 275.485 291.615 275.907 290.896 276.224C290.188 276.532 289.464 276.683 288.73 276.683C287.188 276.683 285.886 276.172 284.834 275.141C283.792 274.115 283.271 272.844 283.271 271.328C283.271 269.844 283.798 268.594 284.855 267.578C285.923 266.552 287.235 266.037 288.792 266.037Z" fill="#3E8CF4"/>
<path d="M301.519 273.099V276.599H299.769V273.162L295.853 266.078H297.644L300.644 271.203L303.582 266.078H305.394L301.519 273.099Z" fill="#3E8CF4"/>
<path d="M100.157 189.388H95.4483V191.721H99.6567V193.033H95.4483V195.408H100.302V196.721H93.99V188.075H100.157V189.388Z" fill="black"/>
<path d="M107.082 188.013C108.207 188.013 109.213 188.315 110.103 188.908L109.499 190.179C108.624 189.653 107.78 189.388 106.978 189.388C106.53 189.388 106.187 189.466 105.937 189.617C105.687 189.773 105.562 189.992 105.562 190.283C105.562 190.575 105.671 190.825 105.895 191.033C106.129 191.231 106.421 191.377 106.77 191.471C107.114 191.554 107.489 191.674 107.895 191.825C108.296 191.966 108.671 192.117 109.02 192.283C109.364 192.44 109.65 192.69 109.874 193.033C110.108 193.382 110.228 193.799 110.228 194.283C110.228 195.033 109.921 195.638 109.312 196.096C108.697 196.544 107.916 196.763 106.957 196.763C106.301 196.763 105.666 196.648 105.041 196.408C104.426 196.158 103.885 195.825 103.416 195.408L104.062 194.138C104.489 194.544 104.963 194.856 105.478 195.075C106.004 195.299 106.504 195.408 106.978 195.408C107.489 195.408 107.885 195.32 108.166 195.138C108.457 194.945 108.603 194.679 108.603 194.346C108.603 194.054 108.483 193.815 108.249 193.617C108.025 193.408 107.739 193.257 107.395 193.158C107.046 193.065 106.671 192.95 106.27 192.825C105.864 192.69 105.489 192.544 105.145 192.388C104.796 192.237 104.504 191.992 104.27 191.658C104.046 191.315 103.937 190.903 103.937 190.429C103.937 189.695 104.218 189.112 104.791 188.679C105.374 188.237 106.135 188.013 107.082 188.013Z" fill="black"/>
<path d="M119.984 189.388H117.234V196.721H115.776V189.388H113.046V188.075H119.984V189.388Z" fill="black"/>
<path d="M123.396 188.075H126.937C128.229 188.075 129.292 188.487 130.125 189.304C130.969 190.112 131.396 191.148 131.396 192.408C131.396 193.658 130.969 194.695 130.125 195.513C129.276 196.32 128.198 196.721 126.896 196.721H123.396V188.075ZM124.854 189.388V195.408H126.979C127.823 195.408 128.526 195.132 129.083 194.575C129.651 194.007 129.937 193.283 129.937 192.408C129.937 191.533 129.646 190.815 129.062 190.242C128.479 189.674 127.76 189.388 126.917 189.388H124.854Z" fill="black"/>
<path d="M261.84 188.013C262.657 188.013 263.319 188.216 263.819 188.617C264.329 189.007 264.59 189.528 264.59 190.179C264.59 190.945 264.058 191.898 263.006 193.033L260.756 195.408H264.986V196.721H258.84V195.658L262.027 192.242C262.72 191.523 263.069 190.903 263.069 190.388C263.069 190.044 262.933 189.773 262.673 189.575C262.423 189.382 262.074 189.283 261.631 189.283C260.84 189.283 260.048 189.648 259.256 190.367L258.694 189.242C259.704 188.424 260.756 188.013 261.84 188.013Z" fill="black"/>
<path d="M271.967 188.033C273.144 188.033 274.05 188.419 274.675 189.179C275.311 189.929 275.633 191.007 275.633 192.408C275.633 193.799 275.311 194.877 274.675 195.637C274.05 196.387 273.144 196.762 271.967 196.762C270.785 196.762 269.873 196.387 269.238 195.637C268.597 194.877 268.279 193.799 268.279 192.408C268.279 191.007 268.597 189.929 269.238 189.179C269.873 188.419 270.785 188.033 271.967 188.033ZM271.967 189.179C270.508 189.179 269.779 190.257 269.779 192.408C269.779 194.549 270.508 195.617 271.967 195.617C273.425 195.617 274.154 194.549 274.154 192.408C274.154 190.257 273.425 189.179 271.967 189.179Z" fill="black"/>
<path d="M281.95 188.013C282.768 188.013 283.429 188.216 283.929 188.617C284.44 189.007 284.7 189.528 284.7 190.179C284.7 190.945 284.169 191.898 283.117 193.033L280.867 195.408H285.096V196.721H278.95V195.658L282.138 192.242C282.83 191.523 283.179 190.903 283.179 190.388C283.179 190.044 283.044 189.773 282.784 189.575C282.534 189.382 282.185 189.283 281.742 189.283C280.95 189.283 280.159 189.648 279.367 190.367L278.804 189.242C279.815 188.424 280.867 188.013 281.95 188.013Z" fill="black"/>
<path d="M292.077 188.033C293.254 188.033 294.161 188.419 294.786 189.179C295.421 189.929 295.744 191.007 295.744 192.408C295.744 193.799 295.421 194.877 294.786 195.637C294.161 196.387 293.254 196.762 292.077 196.762C290.895 196.762 289.984 196.387 289.348 195.637C288.708 194.877 288.39 193.799 288.39 192.408C288.39 191.007 288.708 189.929 289.348 189.179C289.984 188.419 290.895 188.033 292.077 188.033ZM292.077 189.179C290.619 189.179 289.89 190.257 289.89 192.408C289.89 194.549 290.619 195.617 292.077 195.617C293.536 195.617 294.265 194.549 294.265 192.408C294.265 190.257 293.536 189.179 292.077 189.179Z" fill="black"/>
<path d="M56.976 251.526C55.5854 251.526 54.5854 250.848 53.976 249.484L43.3093 225.505C42.877 224.479 42.8979 223.645 43.3718 223.005C43.8406 222.354 44.5437 222.026 45.476 222.026C46.2676 222.026 46.8562 222.203 47.2468 222.546C47.6479 222.88 47.9864 223.395 48.2676 224.088L57.0593 244.484L65.851 224.046C66.1426 223.38 66.4864 222.88 66.8926 222.546C67.3093 222.203 67.8822 222.026 68.6218 222.026C69.4968 222.026 70.1531 222.359 70.601 223.026C71.0593 223.682 71.0489 224.505 70.5801 225.505L59.9135 249.484C59.6218 250.166 59.2468 250.682 58.7885 251.026C58.3406 251.359 57.7364 251.526 56.976 251.526Z" fill="black"/>
<path d="M92.2406 251.609C89.4594 251.609 87.0323 250.999 84.949 249.775C82.8656 248.541 81.2458 246.812 80.0948 244.588C78.9542 242.369 78.3865 239.755 78.3865 236.755C78.3865 233.729 78.9542 231.109 80.0948 228.9C81.2458 226.692 82.8552 224.984 84.9281 223.775C86.9958 222.557 89.4333 221.942 92.2406 221.942C95.0583 221.942 97.5011 222.557 99.574 223.775C101.642 224.984 103.246 226.692 104.386 228.9C105.538 231.109 106.116 233.713 106.116 236.713C106.116 239.744 105.538 242.369 104.386 244.588C103.246 246.812 101.642 248.541 99.574 249.775C97.5011 250.999 95.0583 251.609 92.2406 251.609ZM92.2406 247.109C94.8917 247.109 96.9542 246.203 98.4281 244.38C99.8969 242.546 100.636 240.005 100.636 236.755C100.636 233.494 99.9073 230.958 98.449 229.15C96.9906 227.348 94.9177 226.442 92.2406 226.442C89.6 226.442 87.5427 227.348 86.074 229.15C84.6 230.958 83.8656 233.494 83.8656 236.755C83.8656 240.005 84.6 242.546 86.074 244.38C87.5427 246.203 89.6 247.109 92.2406 247.109Z" fill="black"/>
<path d="M129.49 251.609C126.49 251.609 123.917 251.005 121.782 249.796C119.641 248.578 117.995 246.854 116.844 244.63C115.703 242.411 115.136 239.786 115.136 236.755C115.136 233.729 115.703 231.109 116.844 228.9C117.995 226.692 119.641 224.984 121.782 223.775C123.917 222.557 126.49 221.942 129.49 221.942C130.99 221.942 132.459 222.14 133.907 222.525C135.349 222.9 136.62 223.442 137.719 224.15C138.427 224.624 138.844 225.182 138.969 225.817C139.104 226.458 139.021 227.046 138.719 227.588C138.427 228.119 137.979 228.473 137.386 228.65C136.787 228.817 136.12 228.661 135.386 228.171C134.537 227.63 133.62 227.234 132.636 226.984C131.646 226.734 130.657 226.609 129.657 226.609C126.74 226.609 124.516 227.494 122.99 229.255C121.459 231.005 120.698 233.505 120.698 236.755C120.698 240.005 121.459 242.52 122.99 244.296C124.516 246.062 126.74 246.942 129.657 246.942C130.683 246.942 131.703 246.817 132.719 246.567C133.729 246.307 134.688 245.895 135.594 245.338C136.328 244.88 136.979 244.734 137.552 244.9C138.12 245.057 138.542 245.39 138.823 245.9C139.115 246.4 139.203 246.953 139.094 247.546C138.979 248.145 138.615 248.682 137.99 249.15C136.907 249.942 135.604 250.557 134.094 250.984C132.578 251.4 131.042 251.609 129.49 251.609Z" fill="black"/>
<path d="M148.822 251.526C147.864 251.526 147.176 251.197 146.76 250.546C146.354 249.88 146.374 249.088 146.822 248.171L157.614 224.234C157.958 223.442 158.385 222.88 158.885 222.546C159.395 222.203 159.979 222.026 160.635 222.026C161.26 222.026 161.822 222.203 162.322 222.546C162.833 222.88 163.265 223.442 163.614 224.234L174.468 248.171C174.895 249.119 174.916 249.916 174.531 250.567C174.156 251.203 173.499 251.526 172.572 251.526C171.807 251.526 171.218 251.343 170.801 250.984C170.385 250.609 170.01 250.041 169.676 249.276L167.635 244.526H153.572L151.551 249.276C151.203 250.067 150.833 250.645 150.447 251.005C150.072 251.348 149.531 251.526 148.822 251.526ZM160.551 228.046L155.364 240.359H165.822L160.635 228.046H160.551Z" fill="black"/>
<path d="M186.396 251.192C184.531 251.192 183.604 250.27 183.604 248.421V225.151C183.604 223.291 184.531 222.359 186.396 222.359H196.208C199.234 222.359 201.573 223.02 203.229 224.338C204.896 225.661 205.729 227.494 205.729 229.838C205.729 231.395 205.333 232.734 204.542 233.859C203.75 234.973 202.656 235.786 201.271 236.296C202.906 236.77 204.177 237.588 205.083 238.755C206 239.911 206.458 241.369 206.458 243.13C206.458 245.703 205.588 247.687 203.854 249.088C202.13 250.494 199.729 251.192 196.646 251.192H186.396ZM188.646 234.588H195.312C198.88 234.588 200.667 233.213 200.667 230.463C200.667 227.703 198.88 226.317 195.312 226.317H188.646V234.588ZM188.646 247.234H196C199.594 247.234 201.396 245.791 201.396 242.901C201.396 240 199.594 238.546 196 238.546H188.646V247.234Z" fill="black"/>
<path d="M228.367 251.609C224.42 251.609 221.399 250.583 219.305 248.526C217.222 246.458 216.18 243.411 216.18 239.38V224.692C216.18 222.916 217.055 222.026 218.805 222.026C220.555 222.026 221.43 222.916 221.43 224.692V239.338C221.43 241.921 222.018 243.869 223.201 245.171C224.378 246.463 226.102 247.109 228.367 247.109C232.977 247.109 235.284 244.52 235.284 239.338V224.692C235.284 222.916 236.159 222.026 237.909 222.026C239.617 222.026 240.472 222.916 240.472 224.692V239.38C240.472 243.411 239.451 246.458 237.409 248.526C235.367 250.583 232.352 251.609 228.367 251.609Z" fill="black"/>
<path d="M253.883 251.192C252.102 251.192 251.217 250.291 251.217 248.484V224.901C251.217 223.125 252.092 222.234 253.842 222.234C255.576 222.234 256.446 223.125 256.446 224.901V246.734H268.321C269.847 246.734 270.612 247.473 270.612 248.942C270.612 250.442 269.847 251.192 268.321 251.192H253.883Z" fill="black"/>
<path d="M281.476 251.526C279.726 251.526 278.851 250.624 278.851 248.817V224.734C278.851 222.932 279.726 222.026 281.476 222.026C283.21 222.026 284.08 222.932 284.08 224.734V248.817C284.08 250.624 283.21 251.526 281.476 251.526Z" fill="black"/>
<path d="M304.977 251.609C303.154 251.609 301.378 251.406 299.644 251.005C297.904 250.588 296.399 249.973 295.123 249.15C294.498 248.734 294.113 248.229 293.977 247.63C293.837 247.036 293.884 246.473 294.123 245.942C294.357 245.4 294.727 245.036 295.227 244.838C295.727 244.63 296.3 244.729 296.956 245.13C298.165 245.854 299.436 246.38 300.769 246.713C302.102 247.036 303.503 247.192 304.977 247.192C307.128 247.192 308.696 246.833 309.686 246.109C310.67 245.39 311.165 244.453 311.165 243.296C311.165 242.338 310.811 241.588 310.102 241.046C309.404 240.505 308.217 240.057 306.54 239.692L302.04 238.755C296.915 237.671 294.352 235.041 294.352 230.859C294.352 229.067 294.821 227.505 295.769 226.171C296.727 224.828 298.05 223.786 299.748 223.046C301.441 222.312 303.394 221.942 305.602 221.942C307.227 221.942 308.774 222.15 310.248 222.567C311.717 222.973 313.045 223.567 314.227 224.359C314.769 224.749 315.092 225.223 315.206 225.775C315.316 226.333 315.248 226.854 314.998 227.338C314.748 227.812 314.357 228.14 313.831 228.317C313.3 228.484 312.686 228.369 311.977 227.963C310.962 227.395 309.936 226.984 308.894 226.734C307.863 226.484 306.753 226.359 305.561 226.359C303.67 226.359 302.191 226.755 301.123 227.546C300.066 228.338 299.54 229.38 299.54 230.671C299.54 231.645 299.863 232.432 300.519 233.025C301.17 233.609 302.29 234.062 303.873 234.38L308.331 235.317C311.024 235.9 313.029 236.807 314.352 238.025C315.686 239.249 316.352 240.88 316.352 242.921C316.352 244.645 315.884 246.166 314.956 247.484C314.024 248.791 312.706 249.807 310.998 250.525C309.3 251.244 307.295 251.609 304.977 251.609Z" fill="black"/>
<path d="M335.057 251.526C333.317 251.526 332.453 250.625 332.453 248.817V226.734H324.473C322.973 226.734 322.223 226 322.223 224.526C322.223 223.083 322.973 222.359 324.473 222.359H345.661C347.161 222.359 347.911 223.083 347.911 224.526C347.911 226 347.161 226.734 345.661 226.734H337.682V248.817C337.682 250.625 336.807 251.526 335.057 251.526Z" fill="black"/>
</svg>
