<svg width="24" height="24" viewBox="0 0 24 24" fill="none" xmlns="http://www.w3.org/2000/svg">
<path d="M20.6593 12.4608C20.502 14.163 19.8632 15.7852 18.8176 17.1376C17.772 18.4899 16.3628 19.5166 14.755 20.0973C13.1472 20.6781 11.4073 20.7889 9.73883 20.4169C8.07034 20.0448 6.54232 19.2053 5.33355 17.9966C4.12478 16.7878 3.28526 15.2598 2.91323 13.5913C2.5412 11.9228 2.65204 10.1829 3.23279 8.57507C3.81353 6.96729 4.84016 5.55814 6.19254 4.51253C7.54492 3.46692 9.16712 2.82808 10.8693 2.67078C9.87274 4.01904 9.39317 5.68023 9.51786 7.35219C9.64254 9.02416 10.3632 10.5958 11.5487 11.7814C12.7343 12.9669 14.3059 13.6876 15.9779 13.8122C17.6499 13.9369 19.3111 13.4574 20.6593 12.4608V12.4608Z" stroke="#121111" stroke-width="2" stroke-linecap="round" stroke-linejoin="round"/>
</svg>
