<svg width="24" height="24" viewBox="0 0 24 24" fill="none" xmlns="http://www.w3.org/2000/svg">
<path d="M4 2.39844C3.125 2.39844 2.39844 3.125 2.39844 4V12.8008C2.39844 13.6758 3.125 14.3984 4 14.3984H9.60156V17.6016H6.39844V15.1992L5.60156 14.3984L4.80078 15.1992V17.6016L6.39844 19.1992H9.60156V20C9.60156 20.8828 10.3164 21.6016 11.1992 21.6016H20C20.8828 21.6016 21.6016 20.8828 21.6016 20V11.1992C21.6016 10.3164 20.8828 9.60156 20 9.60156H14.3984V4C14.3984 3.125 13.6758 2.39844 12.8008 2.39844H4ZM4 4H12.8008V9.60156H11.1992C10.3164 9.60156 9.60156 10.3164 9.60156 11.1992V12.8008H4V4ZM9.60156 11.1992V10.3984C9.40234 10.3984 9.21875 10.375 9.03125 10.3477C9.05078 10.332 9.07422 10.3203 9.09375 10.3086C9.94922 9.65625 10.3984 8.60156 10.3984 7.19922H11.1992V6.39844H8.80078V5.19922H8V6.39844H5.60156V7.19922H9.60156C9.60156 8.4375 9.25 9.18359 8.60937 9.67187C8.43359 9.80469 8.22266 9.91797 7.99219 10.0156C7.73437 9.88672 7.49219 9.74219 7.28906 9.57031C6.71484 9.08594 6.39844 8.47266 6.39844 8H5.60156C5.60156 8.79687 6.05859 9.58203 6.77344 10.1836C6.82031 10.2227 6.87891 10.2539 6.92578 10.293C6.52734 10.3555 6.09375 10.3984 5.60156 10.3984V11.1992C6.49219 11.1992 7.28516 11.1094 7.96484 10.8828C8.46094 11.0781 9.00781 11.1992 9.60156 11.1992ZM14.7227 12.7812H16.4766L18.3711 18.418H16.8086L16.457 17.1797H14.6172L14.2539 18.418H12.832L14.7227 12.7812ZM15.5078 14.0508L14.8906 16.1484H16.1875L15.582 14.0508H15.5078Z" fill="#0091FF"/>
</svg>
