<?xml version="1.0" encoding="UTF-8"?>
<svg xmlns="http://www.w3.org/2000/svg" xmlns:xlink="http://www.w3.org/1999/xlink" viewBox="0 0 24 24" width="24px" height="24px">
<g id="surface43608962">
<path style=" stroke:none;fill-rule:nonzero;fill:rgb(0%,21.960784%,71.764708%);fill-opacity:1;" d="M 4 2.398438 C 3.125 2.398438 2.398438 3.125 2.398438 4 L 2.398438 12.800781 C 2.398438 13.675781 3.125 14.398438 4 14.398438 L 9.601562 14.398438 L 9.601562 17.601562 L 6.398438 17.601562 L 6.398438 15.199219 L 5.601562 14.398438 L 4.800781 15.199219 L 4.800781 17.601562 L 6.398438 19.199219 L 9.601562 19.199219 L 9.601562 20 C 9.601562 20.882812 10.316406 21.601562 11.199219 21.601562 L 20 21.601562 C 20.882812 21.601562 21.601562 20.882812 21.601562 20 L 21.601562 11.199219 C 21.601562 10.316406 20.882812 9.601562 20 9.601562 L 14.398438 9.601562 L 14.398438 4 C 14.398438 3.125 13.675781 2.398438 12.800781 2.398438 Z M 4 4 L 12.800781 4 L 12.800781 9.601562 L 11.199219 9.601562 C 10.316406 9.601562 9.601562 10.316406 9.601562 11.199219 L 9.601562 12.800781 L 4 12.800781 Z M 9.601562 11.199219 L 9.601562 10.398438 C 9.402344 10.398438 9.21875 10.375 9.03125 10.347656 C 9.050781 10.332031 9.074219 10.320312 9.09375 10.308594 C 9.949219 9.65625 10.398438 8.601562 10.398438 7.199219 L 11.199219 7.199219 L 11.199219 6.398438 L 8.800781 6.398438 L 8.800781 5.199219 L 8 5.199219 L 8 6.398438 L 5.601562 6.398438 L 5.601562 7.199219 L 9.601562 7.199219 C 9.601562 8.4375 9.25 9.183594 8.609375 9.671875 C 8.433594 9.804688 8.222656 9.917969 7.992188 10.015625 C 7.734375 9.886719 7.492188 9.742188 7.289062 9.570312 C 6.714844 9.085938 6.398438 8.472656 6.398438 8 L 5.601562 8 C 5.601562 8.796875 6.058594 9.582031 6.773438 10.183594 C 6.820312 10.222656 6.878906 10.253906 6.925781 10.292969 C 6.527344 10.355469 6.09375 10.398438 5.601562 10.398438 L 5.601562 11.199219 C 6.492188 11.199219 7.285156 11.109375 7.964844 10.882812 C 8.460938 11.078125 9.007812 11.199219 9.601562 11.199219 Z M 14.722656 12.78125 L 16.476562 12.78125 L 18.371094 18.417969 L 16.808594 18.417969 L 16.457031 17.179688 L 14.617188 17.179688 L 14.253906 18.417969 L 12.832031 18.417969 Z M 15.507812 14.050781 L 14.890625 16.148438 L 16.1875 16.148438 L 15.582031 14.050781 Z M 15.507812 14.050781 "/>
</g>
</svg>
